<?xml version="1.0" standalone="no"?>
<!DOCTYPE svg PUBLIC "-//W3C//DTD SVG 20010904//EN"
 "http://www.w3.org/TR/2001/REC-SVG-20010904/DTD/svg10.dtd">
<svg version="1.0" xmlns="http://www.w3.org/2000/svg"
 width="1280.000000pt" height="1280.000000pt" viewBox="0 0 1280.000000 1280.000000"
 preserveAspectRatio="xMidYMid meet">
<metadata>
Created by potrace 1.16, written by Peter Selinger 2001-2019
</metadata>
<g transform="translate(0.000000,1280.000000) scale(0.100000,-0.100000)"
fill="#030303" stroke="none">
<path d="M6270 12779 c-51 -20 -208 -174 -2336 -2303 -1861 -1861 -2286 -2290
-2305 -2331 -20 -42 -24 -66 -24 -145 0 -111 19 -162 86 -229 62 -62 119 -85
219 -89 69 -3 96 0 145 19 58 21 120 82 2050 2007 l1990 1986 5 -5740 c5
-5420 6 -5741 22 -5777 31 -68 76 -115 143 -148 59 -29 70 -31 147 -27 96 4
143 23 201 81 22 22 49 60 61 86 l21 46 5 5739 5 5740 1985 -1980 c1596 -1592
1995 -1985 2035 -2005 67 -32 191 -39 267 -13 71 23 167 118 191 188 24 69 22
172 -4 243 -20 56 -102 139 -2303 2340 -1653 1653 -2293 2287 -2326 2304 -66
33 -204 37 -280 8z"/>
</g>
</svg>
